<?xml version="1.0" encoding="iso-8859-1"?>
<!-- Generator: Adobe Illustrator 19.0.0, SVG Export Plug-In . SVG Version: 6.00 Build 0)  -->
<svg version="1.1" id="Layer_1" xmlns="http://www.w3.org/2000/svg" xmlns:xlink="http://www.w3.org/1999/xlink" x="0px" y="0px"
	 viewBox="0 0 512.008 512.008" style="enable-background:new 0 0 512.008 512.008;" xml:space="preserve">
<g>
	<path style="fill:#2D2D2D;" d="M384,450.184H128V220.856h-15.36v33.76v242.032c0,8.448,6.912,15.36,15.36,15.36h256
		c8.448,0,15.36-6.912,15.36-15.36V220.856H384V450.184z M286.72,481.28h-61.44c-2.816,0-5.12-2.304-5.12-5.12s2.304-5.12,5.12-5.12
		h61.44c2.816,0,5.12,2.304,5.12,5.12S289.536,481.28,286.72,481.28z"/>
	<path style="fill:#2D2D2D;" d="M128,40.584h256v70.04h15.36V15.36C399.36,6.912,392.448,0,384,0H128
		c-8.448,0-15.36,6.912-15.36,15.36v95.264H128V40.584z M304.552,15.52c2.832,0,5.128,2.296,5.128,5.128
		c0,2.832-2.296,5.128-5.128,5.128s-5.128-2.296-5.128-5.128S301.72,15.52,304.552,15.52z M286.928,15.52
		c2.832,0,5.128,2.296,5.128,5.128c0,2.832-2.296,5.128-5.128,5.128s-5.128-2.296-5.128-5.128S284.096,15.52,286.928,15.52z
		 M207.44,15.52h45.44c2.816,0,5.12,2.304,5.12,5.12c0,2.816-2.304,5.12-5.12,5.12h-45.44c-2.816,0-5.12-2.304-5.12-5.12
		S204.624,15.52,207.44,15.52z"/>
</g>
<g>
	<path style="fill:#C9C9C9;" d="M286.72,471.04h-61.44c-2.816,0-5.12,2.304-5.12,5.12s2.304,5.12,5.12,5.12h61.44
		c2.816,0,5.12-2.304,5.12-5.12S289.536,471.04,286.72,471.04z"/>
	<path style="fill:#C9C9C9;" d="M207.44,25.76h45.44c2.816,0,5.12-2.304,5.12-5.12s-2.304-5.12-5.12-5.12h-45.44
		c-2.816,0-5.12,2.304-5.12,5.12C202.32,23.456,204.624,25.76,207.44,25.76z"/>
	<circle style="fill:#C9C9C9;" cx="286.928" cy="20.648" r="5.128"/>
	<circle style="fill:#C9C9C9;" cx="304.56" cy="20.648" r="5.128"/>
</g>
<g>
	<rect x="128" y="40.584" style="fill:#DB2B42;" width="256" height="70.04"/>
	<path style="fill:#DB2B42;" d="M384,450.184V220.856H128v229.336h256V450.184z M153.688,289.272h204.8v10.24h-204.8V289.272z
		 M153.688,317.752h204.8v10.24h-204.8V317.752z M153.688,346.232h204.8v10.24h-204.8V346.232z M358.488,374.712v10.24h-204.8
		v-10.24H358.488z"/>
</g>
<path style="fill:#8AD5DD;" d="M128,220.856h256h15.36h36.816V110.624H399.36H384H128h-15.36H75.832v110.224h36.816H128V220.856z
	 M310.488,138.624l7.168,27.56c1.56,6.04,3.016,11.648,4.032,17.256h0.336c1.232-5.496,3.016-11.32,4.816-17.144l8.856-27.672h8.288
	l8.4,27.112c2.016,6.496,3.592,12.208,4.824,17.704h0.336c0.896-5.496,2.352-11.208,4.144-17.592l7.728-27.224h9.752l-17.48,54.224
	h-8.968l-8.288-25.88c-1.904-6.048-3.48-11.424-4.824-17.816h-0.224c-1.344,6.504-3.016,12.104-4.928,17.928l-8.736,25.768h-8.968
	L300.4,138.624H310.488z M226.704,138.624l7.168,27.56c1.56,6.04,3.016,11.648,4.032,17.256h0.336
	c1.232-5.496,3.016-11.32,4.816-17.144l8.856-27.672h8.288l8.4,27.112c2.016,6.496,3.592,12.208,4.824,17.704h0.336
	c0.896-5.496,2.352-11.208,4.144-17.592l7.728-27.224h9.752l-17.48,54.224h-8.968l-8.288-25.88
	c-1.904-6.048-3.48-11.424-4.824-17.816H255.6c-1.344,6.504-3.016,12.104-4.928,17.928l-8.736,25.768h-8.968l-16.352-54.224H226.704
	z M142.92,138.624l7.168,27.56c1.56,6.04,3.016,11.648,4.032,17.256h0.336c1.232-5.496,3.016-11.32,4.816-17.144l8.856-27.672h8.288
	l8.4,27.112c2.016,6.496,3.592,12.208,4.824,17.704h0.336c0.896-5.496,2.352-11.208,4.144-17.592l7.728-27.224h9.752l-17.48,54.224
	h-8.968l-8.288-25.88c-1.904-6.048-3.48-11.424-4.824-17.816h-0.224c-1.344,6.504-3.016,12.104-4.928,17.928l-8.736,25.768h-8.968
	l-16.352-54.224H142.92z"/>
<polygon style="fill:#79C2C6;" points="112.64,220.856 75.832,220.856 112.64,254.608 "/>
<g>
	<rect x="153.688" y="289.24" style="fill:#FFFFFF;" width="204.8" height="10.24"/>
	<rect x="153.688" y="317.752" style="fill:#FFFFFF;" width="204.8" height="10.24"/>
	<rect x="153.688" y="346.2" style="fill:#FFFFFF;" width="204.8" height="10.24"/>
	<rect x="153.688" y="374.712" style="fill:#FFFFFF;" width="204.8" height="10.24"/>
	<path style="fill:#FFFFFF;" d="M158.152,192.848l8.736-25.768c1.904-5.824,3.584-11.424,4.928-17.928h0.224
		c1.344,6.392,2.912,11.768,4.824,17.816l8.288,25.88h8.968l17.48-54.224h-9.76l-7.728,27.224
		c-1.792,6.384-3.248,12.096-4.144,17.592h-0.336c-1.232-5.496-2.8-11.208-4.824-17.704l-8.4-27.112h-8.288l-8.856,27.672
		c-1.792,5.816-3.584,11.648-4.816,17.144h-0.336c-1.016-5.608-2.472-11.208-4.032-17.256l-7.168-27.56h-10.08l16.352,54.224
		H158.152z"/>
	<path style="fill:#FFFFFF;" d="M241.936,192.848l8.736-25.768c1.904-5.824,3.584-11.424,4.928-17.928h0.224
		c1.344,6.392,2.912,11.768,4.824,17.816l8.288,25.88h8.968l17.48-54.224h-9.752l-7.728,27.224
		c-1.792,6.384-3.248,12.096-4.144,17.592h-0.336c-1.232-5.496-2.8-11.208-4.824-17.704l-8.4-27.112h-8.288l-8.856,27.672
		c-1.792,5.816-3.584,11.648-4.816,17.144h-0.336c-1.016-5.608-2.472-11.208-4.032-17.256l-7.168-27.56h-10.08l16.352,54.224
		H241.936z"/>
	<path style="fill:#FFFFFF;" d="M325.72,192.848l8.736-25.768c1.904-5.824,3.584-11.424,4.928-17.928h0.224
		c1.344,6.392,2.912,11.768,4.824,17.816l8.288,25.88h8.968l17.48-54.224h-9.752l-7.728,27.224
		c-1.792,6.384-3.248,12.096-4.144,17.592H357.2c-1.232-5.496-2.8-11.208-4.824-17.704l-8.4-27.112h-8.288l-8.856,27.672
		c-1.792,5.816-3.584,11.648-4.816,17.144h-0.336c-1.016-5.608-2.472-11.208-4.032-17.256l-7.168-27.56H300.4l16.352,54.224H325.72z
		"/>
</g>
<g>
</g>
<g>
</g>
<g>
</g>
<g>
</g>
<g>
</g>
<g>
</g>
<g>
</g>
<g>
</g>
<g>
</g>
<g>
</g>
<g>
</g>
<g>
</g>
<g>
</g>
<g>
</g>
<g>
</g>
</svg>
